<?xml version="1.0" encoding="UTF-8"?>
<!DOCTYPE svg PUBLIC "-//W3C//DTD SVG 1.1//EN" "http://www.w3.org/Graphics/SVG/1.1/DTD/svg11.dtd">
<svg xmlns="http://www.w3.org/2000/svg" version="1.1" width="773px" height="545px" style="shape-rendering:geometricPrecision; text-rendering:geometricPrecision; image-rendering:optimizeQuality; fill-rule:evenodd; clip-rule:evenodd" xmlns:xlink="http://www.w3.org/1999/xlink">
<g><path style="opacity:1" fill="#c5aa9f" d="M -0.5,-0.5 C 257.167,-0.5 514.833,-0.5 772.5,-0.5C 772.5,181.167 772.5,362.833 772.5,544.5C 514.833,544.5 257.167,544.5 -0.5,544.5C -0.5,362.833 -0.5,181.167 -0.5,-0.5 Z"/></g>
<g><path style="opacity:1" fill="#fbf8f3" d="M 441.5,85.5 C 441.427,87.0269 442.094,88.0269 443.5,88.5C 445.678,91.5231 447.345,94.8564 448.5,98.5C 448.427,100.027 449.094,101.027 450.5,101.5C 459.525,121.233 467.192,141.566 473.5,162.5C 479.715,161.93 485.715,160.43 491.5,158C 535.575,134.564 582.575,122.564 632.5,122C 639.918,123.086 644.418,127.253 646,134.5C 646.667,141.5 646.667,148.5 646,155.5C 644.641,165.93 642.808,176.264 640.5,186.5C 638.056,194.613 636.056,202.946 634.5,211.5C 633.076,213.515 632.41,215.848 632.5,218.5C 630.462,222.94 628.796,227.607 627.5,232.5C 618.711,252.745 609.378,272.745 599.5,292.5C 603.653,295.331 608.32,296.998 613.5,297.5C 615.515,298.924 617.848,299.59 620.5,299.5C 621.209,300.404 622.209,300.737 623.5,300.5C 628.941,302.871 634.608,304.871 640.5,306.5C 678.217,322.746 712.383,344.412 743,371.5C 746.365,376.985 746.031,382.318 742,387.5C 722.538,405.979 701.038,421.646 677.5,434.5C 664.213,441.977 650.546,448.644 636.5,454.5C 632.838,454.723 629.505,455.723 626.5,457.5C 625.209,457.263 624.209,457.596 623.5,458.5C 619.239,458.898 615.239,459.898 611.5,461.5C 609.784,461.629 608.117,461.962 606.5,462.5C 603.505,462.294 600.838,462.96 598.5,464.5C 571.463,466.117 544.463,465.784 517.5,463.5C 513.8,461.719 509.8,460.719 505.5,460.5C 502.933,459.525 500.267,458.858 497.5,458.5C 496.01,456.72 494.01,456.054 491.5,456.5C 487.387,454.631 483.054,453.464 478.5,453C 470.127,449.318 461.794,445.485 453.5,441.5C 453.027,440.094 452.027,439.427 450.5,439.5C 442.393,435.277 434.393,430.777 426.5,426C 413.596,416.913 400.596,408.079 387.5,399.5C 386.726,398.853 385.726,398.52 384.5,398.5C 382.645,398.34 381.312,399.007 380.5,400.5C 363.946,412.536 346.946,424.036 329.5,435C 322.167,439 314.833,443 307.5,447C 299.961,449.564 292.627,452.397 285.5,455.5C 282.848,455.41 280.515,456.076 278.5,457.5C 276.214,457.595 274.214,458.262 272.5,459.5C 268.521,459.742 264.854,460.742 261.5,462.5C 256.728,462.705 252.062,463.372 247.5,464.5C 226.178,465.33 204.844,465.663 183.5,465.5C 171.189,463.723 158.856,461.39 146.5,458.5C 144.044,456.132 141.044,455.132 137.5,455.5C 97.3193,441.173 61.8193,419.173 31,389.5C 27.9654,386.263 26.1321,382.43 25.5,378C 25.9931,375.181 27.1597,372.681 29,370.5C 68.3823,332.186 114.882,306.853 168.5,294.5C 168.263,291.353 167.43,288.353 166,285.5C 157.786,269.073 150.119,252.406 143,235.5C 131.883,203.043 125.883,169.71 125,135.5C 125.781,128.725 129.281,124.225 135.5,122C 144.5,121.333 153.5,121.333 162.5,122C 193.211,125.761 222.878,133.427 251.5,145C 265.385,151.776 279.385,158.276 293.5,164.5C 295.705,163.115 297.205,161.115 298,158.5C 304.14,141.079 310.473,123.746 317,106.5C 318.689,103.006 320.522,99.6723 322.5,96.5C 323.906,96.0269 324.573,95.0269 324.5,93.5C 324.66,91.847 325.326,90.5137 326.5,89.5C 327.906,89.0269 328.573,88.0269 328.5,86.5C 339.837,67.1754 352.67,48.8421 367,31.5C 370.833,28.3333 374.667,25.1667 378.5,22C 385.404,19.3904 391.737,20.3904 397.5,25C 414.999,43.1888 429.666,63.3555 441.5,85.5 Z"/></g>
<g><path style="opacity:1" fill="#c5aa9f" d="M 437.5,140.5 C 437.66,142.153 438.326,143.486 439.5,144.5C 440.994,150.307 442.661,155.974 444.5,161.5C 444.565,164.428 445.232,167.095 446.5,169.5C 446.517,171.565 446.85,173.565 447.5,175.5C 447.549,179.078 448.215,182.411 449.5,185.5C 451.046,202.544 450.713,219.544 448.5,236.5C 446.035,245.355 443.702,254.355 441.5,263.5C 439.792,266.95 438.459,270.617 437.5,274.5C 435.935,276.509 434.935,278.843 434.5,281.5C 427.145,297.876 418.978,313.876 410,329.5C 403.07,339.762 395.403,349.429 387,358.5C 382.427,355.934 378.427,352.601 375,348.5C 357.931,326.235 344.431,301.901 334.5,275.5C 333.538,271.605 332.204,267.939 330.5,264.5C 330.405,262.214 329.738,260.214 328.5,258.5C 328.59,255.848 327.924,253.515 326.5,251.5C 326.59,248.848 325.924,246.515 324.5,244.5C 324.58,241.219 323.913,238.219 322.5,235.5C 322.477,229.288 321.81,223.288 320.5,217.5C 320.212,203.049 321.378,188.716 324,174.5C 327.866,158.237 332.533,142.237 338,126.5C 347.858,104.959 359.858,84.6252 374,65.5C 376.593,63.4514 379.093,61.2848 381.5,59C 384.634,58.2099 387.634,58.5432 390.5,60C 412.224,83.2788 427.891,110.112 437.5,140.5 Z"/></g>
<g><path style="opacity:1" fill="#e0d1c9" d="M 441.5,85.5 C 442.906,85.9731 443.573,86.9731 443.5,88.5C 442.094,88.0269 441.427,87.0269 441.5,85.5 Z"/></g>
<g><path style="opacity:1" fill="#e0d1c9" d="M 328.5,86.5 C 328.573,88.0269 327.906,89.0269 326.5,89.5C 326.427,87.9731 327.094,86.9731 328.5,86.5 Z"/></g>
<g><path style="opacity:1" fill="#e0d1c9" d="M 324.5,93.5 C 324.573,95.0269 323.906,96.0269 322.5,96.5C 322.427,94.9731 323.094,93.9731 324.5,93.5 Z"/></g>
<g><path style="opacity:1" fill="#dfcfc7" d="M 448.5,98.5 C 449.906,98.9731 450.573,99.9731 450.5,101.5C 449.094,101.027 448.427,100.027 448.5,98.5 Z"/></g>
<g><path style="opacity:1" fill="#e0d1c9" d="M 437.5,140.5 C 439.104,141.287 439.771,142.62 439.5,144.5C 438.326,143.486 437.66,142.153 437.5,140.5 Z"/></g>
<g><path style="opacity:1" fill="#c5aa9f" d="M 544.5,291.5 C 537.95,291.454 531.617,292.121 525.5,293.5C 518.99,295.202 512.324,296.535 505.5,297.5C 502.933,297.721 500.599,298.388 498.5,299.5C 487.128,304.404 475.462,308.738 463.5,312.5C 460.933,312.721 458.599,313.388 456.5,314.5C 454.712,314.785 453.045,314.452 451.5,313.5C 452.309,311.929 452.643,310.262 452.5,308.5C 452.5,308.167 452.5,307.833 452.5,307.5C 454.897,304.691 456.23,301.358 456.5,297.5C 456.5,297.167 456.5,296.833 456.5,296.5C 458.897,293.691 460.23,290.358 460.5,286.5C 460.5,286.167 460.5,285.833 460.5,285.5C 463.991,279.365 466.325,272.698 467.5,265.5C 469.194,256.726 471.194,248.059 473.5,239.5C 474.268,238.737 474.768,237.737 475,236.5C 475.499,232.514 475.666,228.514 475.5,224.5C 476.66,216.592 477.993,208.592 479.5,200.5C 481.243,197.25 483.577,194.416 486.5,192C 508.245,177.297 531.911,166.631 557.5,160C 574.902,155.353 592.568,152.186 610.5,150.5C 612.593,150.486 614.426,151.152 616,152.5C 617.555,157.382 617.888,162.382 617,167.5C 610.616,207.668 596.949,245.001 576,279.5C 567.601,288.736 557.101,292.736 544.5,291.5 Z"/></g>
<g><path style="opacity:1" fill="#c5aa9f" d="M 289.5,198.5 C 289.427,200.027 290.094,201.027 291.5,201.5C 292.301,203.042 292.634,204.708 292.5,206.5C 292.156,211.122 292.823,215.455 294.5,219.5C 295.483,223.298 295.817,227.298 295.5,231.5C 295.053,237.228 296.053,242.562 298.5,247.5C 298.5,248.167 298.5,248.833 298.5,249.5C 298.171,252.228 298.837,254.562 300.5,256.5C 301.612,258.599 302.279,260.933 302.5,263.5C 303.39,269.166 305.057,274.5 307.5,279.5C 308.256,283.767 309.589,287.767 311.5,291.5C 312.404,292.209 312.737,293.209 312.5,294.5C 312.395,298.258 313.395,301.592 315.5,304.5C 316.451,305.919 316.784,307.585 316.5,309.5C 316.5,310.833 316.5,312.167 316.5,313.5C 314.194,313.007 311.861,312.674 309.5,312.5C 307.421,312.029 305.421,311.363 303.5,310.5C 301.824,308.166 299.491,307.166 296.5,307.5C 296.167,307.5 295.833,307.5 295.5,307.5C 292.374,305.01 288.708,303.677 284.5,303.5C 279.367,300.342 273.7,298.342 267.5,297.5C 264.592,295.395 261.258,294.395 257.5,294.5C 255.236,293.781 252.903,293.448 250.5,293.5C 248.22,291.777 245.553,291.111 242.5,291.5C 232.954,291.152 223.621,290.152 214.5,288.5C 211.727,287.343 208.727,286.676 205.5,286.5C 202.606,285.118 200.106,283.118 198,280.5C 172.058,242.174 158.225,199.841 156.5,153.5C 202.862,154.592 245.529,167.759 284.5,193C 286.373,194.704 288.04,196.537 289.5,198.5 Z"/></g>
<g><path style="opacity:1" fill="#e4d7cf" d="M 444.5,161.5 C 446.04,163.838 446.706,166.505 446.5,169.5C 445.232,167.095 444.565,164.428 444.5,161.5 Z"/></g>
<g><path style="opacity:1" fill="#e5d9d1" d="M 447.5,175.5 C 449.011,178.544 449.678,181.878 449.5,185.5C 448.215,182.411 447.549,179.078 447.5,175.5 Z"/></g>
<g><path style="opacity:1" fill="#d2bcb3" d="M 640.5,186.5 C 639.574,195.201 637.574,203.535 634.5,211.5C 636.056,202.946 638.056,194.613 640.5,186.5 Z"/></g>
<g><path style="opacity:1" fill="#ddcec5" d="M 289.5,198.5 C 290.906,198.973 291.573,199.973 291.5,201.5C 290.094,201.027 289.427,200.027 289.5,198.5 Z"/></g>
<g><path style="opacity:1" fill="#dcccc3" d="M 479.5,200.5 C 477.993,208.592 476.66,216.592 475.5,224.5C 475.082,216.069 476.415,208.069 479.5,200.5 Z"/></g>
<g><path style="opacity:1" fill="#d9c7be" d="M 292.5,206.5 C 294.054,210.567 294.72,214.9 294.5,219.5C 292.823,215.455 292.156,211.122 292.5,206.5 Z"/></g>
<g><path style="opacity:1" fill="#d2bcb3" d="M 632.5,218.5 C 631.991,223.703 630.324,228.37 627.5,232.5C 628.796,227.607 630.462,222.94 632.5,218.5 Z"/></g>
<g><path style="opacity:1" fill="#e5d8d1" d="M 320.5,217.5 C 321.81,223.288 322.477,229.288 322.5,235.5C 320.943,229.739 320.276,223.739 320.5,217.5 Z"/></g>
<g><path style="opacity:1" fill="#d8c6bd" d="M 475.5,224.5 C 475.666,228.514 475.499,232.514 475,236.5C 474.768,237.737 474.268,238.737 473.5,239.5C 473.608,234.29 474.275,229.29 475.5,224.5 Z"/></g>
<g><path style="opacity:1" fill="#e4d8d1" d="M 322.5,235.5 C 323.913,238.219 324.58,241.219 324.5,244.5C 323.087,241.781 322.42,238.781 322.5,235.5 Z"/></g>
<g><path style="opacity:1" fill="#d5c2b8" d="M 295.5,231.5 C 296.782,236.656 297.782,241.989 298.5,247.5C 296.053,242.562 295.053,237.228 295.5,231.5 Z"/></g>
<g><path style="opacity:1" fill="#e3d6ce" d="M 448.5,236.5 C 447.549,245.976 445.215,254.976 441.5,263.5C 443.702,254.355 446.035,245.355 448.5,236.5 Z"/></g>
<g><path style="opacity:1" fill="#e4d8d0" d="M 324.5,244.5 C 325.924,246.515 326.59,248.848 326.5,251.5C 325.076,249.485 324.41,247.152 324.5,244.5 Z"/></g>
<g><path style="opacity:1" fill="#e5d8d1" d="M 326.5,251.5 C 327.924,253.515 328.59,255.848 328.5,258.5C 327.076,256.485 326.41,254.152 326.5,251.5 Z"/></g>
<g><path style="opacity:1" fill="#d7c5bb" d="M 298.5,249.5 C 299.924,251.515 300.59,253.848 300.5,256.5C 298.837,254.562 298.171,252.228 298.5,249.5 Z"/></g>
<g><path style="opacity:1" fill="#dac9c0" d="M 302.5,263.5 C 304.943,268.5 306.61,273.834 307.5,279.5C 305.057,274.5 303.39,269.166 302.5,263.5 Z"/></g>
<g><path style="opacity:1" fill="#e7dcd5" d="M 330.5,264.5 C 332.204,267.939 333.538,271.605 334.5,275.5C 332.01,272.374 330.677,268.708 330.5,264.5 Z"/></g>
<g><path style="opacity:1" fill="#d9c7bf" d="M 467.5,265.5 C 466.325,272.698 463.991,279.365 460.5,285.5C 462.463,278.608 464.796,271.941 467.5,265.5 Z"/></g>
<g><path style="opacity:1" fill="#e9ded7" d="M 437.5,274.5 C 437.834,277.491 436.834,279.824 434.5,281.5C 434.935,278.843 435.935,276.509 437.5,274.5 Z"/></g>
<g><path style="opacity:1" fill="#d9c7be" d="M 307.5,279.5 C 309.806,283.085 311.139,287.085 311.5,291.5C 309.589,287.767 308.256,283.767 307.5,279.5 Z"/></g>
<g><path style="opacity:1" fill="#d8c6bd" d="M 205.5,286.5 C 208.727,286.676 211.727,287.343 214.5,288.5C 211.171,288.785 208.171,288.118 205.5,286.5 Z"/></g>
<g><path style="opacity:1" fill="#d9c7bf" d="M 460.5,286.5 C 460.23,290.358 458.897,293.691 456.5,296.5C 457.267,292.851 458.6,289.518 460.5,286.5 Z"/></g>
<g><path style="opacity:1" fill="#dac9c1" d="M 544.5,291.5 C 538.383,292.879 532.05,293.546 525.5,293.5C 531.617,292.121 537.95,291.454 544.5,291.5 Z"/></g>
<g><path style="opacity:1" fill="#dfcfc7" d="M 242.5,291.5 C 245.553,291.111 248.22,291.777 250.5,293.5C 247.572,293.435 244.905,292.768 242.5,291.5 Z"/></g>
<g><path style="opacity:1" fill="#d7c5bc" d="M 257.5,294.5 C 261.258,294.395 264.592,295.395 267.5,297.5C 263.838,297.277 260.505,296.277 257.5,294.5 Z"/></g>
<g><path style="opacity:1" fill="#d8c5bc" d="M 267.5,297.5 C 273.7,298.342 279.367,300.342 284.5,303.5C 278.608,301.871 272.941,299.871 267.5,297.5 Z"/></g>
<g><path style="opacity:1" fill="#d7c4bb" d="M 613.5,297.5 C 616.152,297.41 618.485,298.076 620.5,299.5C 617.848,299.59 615.515,298.924 613.5,297.5 Z"/></g>
<g><path style="opacity:1" fill="#e2d4cc" d="M 505.5,297.5 C 503.562,299.163 501.228,299.829 498.5,299.5C 500.599,298.388 502.933,297.721 505.5,297.5 Z"/></g>
<g><path style="opacity:1" fill="#d7c4bb" d="M 312.5,294.5 C 314.277,297.505 315.277,300.838 315.5,304.5C 313.395,301.592 312.395,298.258 312.5,294.5 Z"/></g>
<g><path style="opacity:1" fill="#d8c7be" d="M 623.5,300.5 C 629.7,301.342 635.367,303.342 640.5,306.5C 634.608,304.871 628.941,302.871 623.5,300.5 Z"/></g>
<g><path style="opacity:1" fill="#d8c6bd" d="M 456.5,297.5 C 456.23,301.358 454.897,304.691 452.5,307.5C 453.267,303.851 454.6,300.518 456.5,297.5 Z"/></g>
<g><path style="opacity:1" fill="#dac9c0" d="M 284.5,303.5 C 288.708,303.677 292.374,305.01 295.5,307.5C 291.605,306.538 287.939,305.204 284.5,303.5 Z"/></g>
<g><path style="opacity:1" fill="#d8c5bd" d="M 296.5,307.5 C 299.491,307.166 301.824,308.166 303.5,310.5C 300.843,310.065 298.509,309.065 296.5,307.5 Z"/></g>
<g><path style="opacity:1" fill="#d9c7be" d="M 316.5,309.5 C 317.738,311.214 318.405,313.214 318.5,315.5C 315.215,315.072 312.215,314.072 309.5,312.5C 311.861,312.674 314.194,313.007 316.5,313.5C 316.5,312.167 316.5,310.833 316.5,309.5 Z"/></g>
<g><path style="opacity:1" fill="#d9c7be" d="M 452.5,308.5 C 452.643,310.262 452.309,311.929 451.5,313.5C 453.045,314.452 454.712,314.785 456.5,314.5C 454.735,315.461 452.735,315.795 450.5,315.5C 450.171,312.772 450.837,310.438 452.5,308.5 Z"/></g>
<g><path style="opacity:1" fill="#e3d5ce" d="M 463.5,312.5 C 461.562,314.163 459.228,314.829 456.5,314.5C 458.599,313.388 460.933,312.721 463.5,312.5 Z"/></g>
<g><path style="opacity:1" fill="#c5aa9f" d="M 268.5,324.5 C 272.502,326.61 276.835,327.943 281.5,328.5C 283.509,330.065 285.843,331.065 288.5,331.5C 314.485,342.331 338.318,356.664 360,374.5C 362.261,378.414 361.927,382.081 359,385.5C 338.836,401.832 317.003,415.499 293.5,426.5C 290.603,427.129 287.936,428.129 285.5,429.5C 280.607,430.796 275.94,432.462 271.5,434.5C 267.838,434.723 264.505,435.723 261.5,437.5C 256.908,437.882 252.575,438.882 248.5,440.5C 244.575,440.43 240.909,441.097 237.5,442.5C 237.167,442.5 236.833,442.5 236.5,442.5C 221.858,443.414 207.191,443.747 192.5,443.5C 184.699,441.755 176.699,440.422 168.5,439.5C 165.829,437.882 162.829,437.215 159.5,437.5C 157.485,436.076 155.152,435.41 152.5,435.5C 137.16,430.83 122.826,423.997 109.5,415C 100.669,409.083 91.6686,403.417 82.5,398C 75.2158,392.717 68.5492,386.717 62.5,380C 67.4121,373.083 73.0788,366.749 79.5,361C 92.6193,352.352 106.286,344.852 120.5,338.5C 122.967,338.245 124.967,337.245 126.5,335.5C 172.412,313.709 219.746,310.042 268.5,324.5 Z"/></g>
<g><path style="opacity:1" fill="#c5aa9f" d="M 547.5,318.5 C 579.208,317.208 609.542,323.042 638.5,336C 657.602,344.715 675.935,354.715 693.5,366C 698,369.167 701.833,373 705,377.5C 705.667,378.833 705.667,380.167 705,381.5C 701.5,386.333 697.333,390.5 692.5,394C 671.684,407.907 649.684,419.407 626.5,428.5C 619.216,430.261 612.216,432.595 605.5,435.5C 601.239,435.898 597.239,436.898 593.5,438.5C 591.901,438.232 590.568,438.566 589.5,439.5C 583.931,439.376 578.598,440.043 573.5,441.5C 562.487,441.499 551.487,441.166 540.5,440.5C 536.455,438.823 532.122,438.156 527.5,438.5C 522.006,436.931 516.34,435.597 510.5,434.5C 508.485,433.076 506.152,432.41 503.5,432.5C 498.199,430.564 492.866,428.564 487.5,426.5C 485.824,424.166 483.491,423.166 480.5,423.5C 472.959,419.563 465.293,415.896 457.5,412.5C 457.027,411.094 456.027,410.427 454.5,410.5C 439.166,402.68 425.333,392.68 413,380.5C 412.333,379.5 412.333,378.5 413,377.5C 417.215,372.985 421.715,368.818 426.5,365C 447.436,351.782 469.269,340.282 492,330.5C 498.492,328.724 504.992,327.057 511.5,325.5C 514.659,324.669 517.659,323.669 520.5,322.5C 524.36,322.192 528.026,321.525 531.5,320.5C 537.034,320.332 542.367,319.665 547.5,318.5 Z"/></g>
<g><path style="opacity:1" fill="#e7dcd5" d="M 547.5,318.5 C 542.367,319.665 537.034,320.332 531.5,320.5C 536.583,318.922 541.916,318.255 547.5,318.5 Z"/></g>
<g><path style="opacity:1" fill="#dfd0c8" d="M 520.5,322.5 C 517.659,323.669 514.659,324.669 511.5,325.5C 513.919,323.138 516.919,322.138 520.5,322.5 Z"/></g>
<g><path style="opacity:1" fill="#e5d9d2" d="M 268.5,324.5 C 273.165,325.057 277.498,326.39 281.5,328.5C 276.835,327.943 272.502,326.61 268.5,324.5 Z"/></g>
<g><path style="opacity:1" fill="#e7ddd5" d="M 281.5,328.5 C 284.491,328.166 286.824,329.166 288.5,331.5C 285.843,331.065 283.509,330.065 281.5,328.5 Z"/></g>
<g><path style="opacity:1" fill="#dac9c0" d="M 126.5,335.5 C 124.967,337.245 122.967,338.245 120.5,338.5C 122.033,336.755 124.033,335.755 126.5,335.5 Z"/></g>
<g><path style="opacity:1" fill="#e1d3cb" d="M 387.5,399.5 C 385.097,399.448 382.764,399.781 380.5,400.5C 381.312,399.007 382.645,398.34 384.5,398.5C 385.726,398.52 386.726,398.853 387.5,399.5 Z"/></g>
<g><path style="opacity:1" fill="#ddcdc5" d="M 454.5,410.5 C 456.027,410.427 457.027,411.094 457.5,412.5C 455.973,412.573 454.973,411.906 454.5,410.5 Z"/></g>
<g><path style="opacity:1" fill="#d8c7be" d="M 480.5,423.5 C 483.491,423.166 485.824,424.166 487.5,426.5C 484.759,426.293 482.426,425.293 480.5,423.5 Z"/></g>
<g><path style="opacity:1" fill="#e8ded6" d="M 293.5,426.5 C 291.383,428.655 288.716,429.655 285.5,429.5C 287.936,428.129 290.603,427.129 293.5,426.5 Z"/></g>
<g><path style="opacity:1" fill="#ebe1da" d="M 285.5,429.5 C 282.859,431.453 279.859,432.953 276.5,434C 274.866,434.494 273.199,434.66 271.5,434.5C 275.94,432.462 280.607,430.796 285.5,429.5 Z"/></g>
<g><path style="opacity:1" fill="#e6dad3" d="M 626.5,428.5 C 619.895,431.813 612.895,434.146 605.5,435.5C 612.216,432.595 619.216,430.261 626.5,428.5 Z"/></g>
<g><path style="opacity:1" fill="#e1d3cc" d="M 503.5,432.5 C 506.152,432.41 508.485,433.076 510.5,434.5C 507.848,434.59 505.515,433.924 503.5,432.5 Z"/></g>
<g><path style="opacity:1" fill="#e7dbd4" d="M 271.5,434.5 C 268.592,436.605 265.258,437.605 261.5,437.5C 264.505,435.723 267.838,434.723 271.5,434.5 Z"/></g>
<g><path style="opacity:1" fill="#dfd0c8" d="M 152.5,435.5 C 155.152,435.41 157.485,436.076 159.5,437.5C 156.848,437.59 154.515,436.924 152.5,435.5 Z"/></g>
<g><path style="opacity:1" fill="#e4d8d0" d="M 605.5,435.5 C 601.837,437.416 597.837,438.416 593.5,438.5C 597.239,436.898 601.239,435.898 605.5,435.5 Z"/></g>
<g><path style="opacity:1" fill="#e3d5ce" d="M 159.5,437.5 C 162.829,437.215 165.829,437.882 168.5,439.5C 165.273,439.324 162.273,438.657 159.5,437.5 Z"/></g>
<g><path style="opacity:1" fill="#dac9c0" d="M 527.5,438.5 C 532.122,438.156 536.455,438.823 540.5,440.5C 535.924,440.562 531.591,439.895 527.5,438.5 Z"/></g>
<g><path style="opacity:1" fill="#dfcfc7" d="M 450.5,439.5 C 452.027,439.427 453.027,440.094 453.5,441.5C 451.973,441.573 450.973,440.906 450.5,439.5 Z"/></g>
<g><path style="opacity:1" fill="#ebe1da" d="M 589.5,439.5 C 584.432,441.178 579.098,441.844 573.5,441.5C 578.598,440.043 583.931,439.376 589.5,439.5 Z"/></g>
<g><path style="opacity:1" fill="#e0d2ca" d="M 248.5,440.5 C 245.091,441.903 241.425,442.57 237.5,442.5C 240.909,441.097 244.575,440.43 248.5,440.5 Z"/></g>
<g><path style="opacity:1" fill="#e4d7d0" d="M 236.5,442.5 C 235.737,443.268 234.737,443.768 233.5,444C 219.66,444.827 205.994,444.661 192.5,443.5C 207.191,443.747 221.858,443.414 236.5,442.5 Z"/></g>
<g><path style="opacity:1" fill="#e9ded7" d="M 137.5,455.5 C 141.044,455.132 144.044,456.132 146.5,458.5C 143.215,458.072 140.215,457.072 137.5,455.5 Z"/></g>
<g><path style="opacity:1" fill="#dac8c0" d="M 285.5,455.5 C 283.485,456.924 281.152,457.59 278.5,457.5C 280.515,456.076 282.848,455.41 285.5,455.5 Z"/></g>
<g><path style="opacity:1" fill="#e8ddd6" d="M 491.5,456.5 C 494.01,456.054 496.01,456.72 497.5,458.5C 495.214,458.405 493.214,457.738 491.5,456.5 Z"/></g>
<g><path style="opacity:1" fill="#dac9c1" d="M 636.5,454.5 C 633.495,456.277 630.162,457.277 626.5,457.5C 629.505,455.723 632.838,454.723 636.5,454.5 Z"/></g>
<g><path style="opacity:1" fill="#dbcac1" d="M 623.5,458.5 C 619.837,460.416 615.837,461.416 611.5,461.5C 615.239,459.898 619.239,458.898 623.5,458.5 Z"/></g>
<g><path style="opacity:1" fill="#dac9c0" d="M 272.5,459.5 C 269.201,461.483 265.534,462.483 261.5,462.5C 264.854,460.742 268.521,459.742 272.5,459.5 Z"/></g>
<g><path style="opacity:1" fill="#decfc7" d="M 505.5,460.5 C 509.8,460.719 513.8,461.719 517.5,463.5C 513.163,463.416 509.163,462.416 505.5,460.5 Z"/></g>
<g><path style="opacity:1" fill="#d8c6bd" d="M 606.5,462.5 C 604.162,464.04 601.495,464.706 598.5,464.5C 600.838,462.96 603.505,462.294 606.5,462.5 Z"/></g>
<g><path style="opacity:1" fill="#dac8c0" d="M 247.5,464.5 C 235.205,466.03 222.705,466.697 210,466.5C 200.994,466.5 192.16,466.166 183.5,465.5C 204.844,465.663 226.178,465.33 247.5,464.5 Z"/></g>
</svg>
